HIERARCHY
ROOT root
{
	OFFSET	0	13.1	24.9
	CHANNELS 6  Xposition Yposition Zposition Xrotation Yrotation Zrotation
	JOINT spine_1
	{
		OFFSET	0	9.99999	0
		CHANNELS 3  Xrotation Yrotation Zrotation
		JOINT spine_2
		{
			OFFSET	0	112	-10
			CHANNELS 3  Xrotation Yrotation Zrotation
			JOINT spine_3
			{
				OFFSET	0	206.5	19.3
				CHANNELS 3  Xrotation Yrotation Zrotation
				JOINT spine_4
				{
					OFFSET	0	110.4	14.6
					CHANNELS 3  Xrotation Yrotation Zrotation
					JOINT neck_1
					{
						OFFSET	0	71.8	-50.3
						CHANNELS 3  Xrotation Yrotation Zrotation
						JOINT neck_2
						{
							OFFSET	0	86.2	-25.8
							CHANNELS 3  Xrotation Yrotation Zrotation
							JOINT head_ee
							{
								OFFSET	0	179.8	-8.7
								CHANNELS 3  Xrotation Yrotation Zrotation
								End Site
								{
									OFFSET	1	0	0
								}
							}
						}
					}
					JOINT left_clavicle
					{
						OFFSET	-43.2	22.4	-70.8
						CHANNELS 3  Xrotation Yrotation Zrotation
						JOINT left_shoulder
						{
							OFFSET	-93.9	-5.79999	48.7
							CHANNELS 3  Xrotation Yrotation Zrotation
							JOINT left_elbow
							{
								OFFSET	-291.4	-30.8	15.2
								CHANNELS 3  Xrotation Yrotation Zrotation
								JOINT left_lowarm_twist
								{
									OFFSET	-110.7	-3.89999	13.6
									CHANNELS 3  Xrotation Yrotation Zrotation
									JOINT left_hand
									{
										OFFSET	-110.7	-3.89999	13.6
										CHANNELS 3  Xrotation Yrotation Zrotation
										JOINT left_ee
										{
											OFFSET	-80.8	-5.10001	12.1
											CHANNELS 3  Xrotation Yrotation Zrotation
											End Site
											{
												OFFSET	1	0	0
											}
										}
									}
								}
							}
						}
					}
					JOINT right_clavicle
					{
						OFFSET	43.2	22.4	-70.8
						CHANNELS 3  Xrotation Yrotation Zrotation
						JOINT right_shoulder
						{
							OFFSET	93.9	-5.79999	48.7
							CHANNELS 3  Xrotation Yrotation Zrotation
							JOINT right_elbow
							{
								OFFSET	291.4	-30.8	15.2
								CHANNELS 3  Xrotation Yrotation Zrotation
								JOINT right_lowarm_twist
								{
									OFFSET	110.7	-3.89999	13.6
									CHANNELS 3  Xrotation Yrotation Zrotation
									JOINT right_hand
									{
										OFFSET	110.7	-3.89999	13.6
										CHANNELS 3  Xrotation Yrotation Zrotation
										JOINT right_ee
										{
											OFFSET	80.8	-5.10001	12.1
											CHANNELS 3  Xrotation Yrotation Zrotation
											End Site
											{
												OFFSET	1	0	0
											}
										}
									}
								}
							}
						}
					}
				}
			}
		}
	}
	JOINT left_hip
	{
		OFFSET	-82.8	-127.5	0.300001
		CHANNELS 3  Xrotation Yrotation Zrotation
		JOINT left_knee
		{
			OFFSET	-28.2	-396.7	2.2
			CHANNELS 3  Xrotation Yrotation Zrotation
			JOINT left_ankle
			{
				OFFSET	-11.7	-411.3	35.4
				CHANNELS 3  Xrotation Yrotation Zrotation
				JOINT left_toes
				{
					OFFSET	0	-60	-88.6
					CHANNELS 3  Xrotation Yrotation Zrotation
					JOINT left_foot_ee
					{
						OFFSET	-22.5	-16.5	-42.2
						CHANNELS 3  Xrotation Yrotation Zrotation
						End Site
						{
							OFFSET	1	0	0
						}
					}
				}
			}
		}
	}
	JOINT right_hip
	{
		OFFSET	82.8	-127.5	0.300001
		CHANNELS 3  Xrotation Yrotation Zrotation
		JOINT right_knee
		{
			OFFSET	28.2	-396.7	2.2
			CHANNELS 3  Xrotation Yrotation Zrotation
			JOINT right_ankle
			{
				OFFSET	11.7	-411.3	35.4
				CHANNELS 3  Xrotation Yrotation Zrotation
				JOINT right_toes
				{
					OFFSET	0	-60	-88.6
					CHANNELS 3  Xrotation Yrotation Zrotation
					JOINT right_foot_ee
					{
						OFFSET	22.5	-16.5	-42.2
						CHANNELS 3  Xrotation Yrotation Zrotation
						End Site
						{
							OFFSET	1	0	0
						}
					}
				}
			}
		}
	}
}
MOTION
Frames: 9
Frame Time: 0.02
2400.89 664.21 -1172.84 -32.6625 44.3366 27.2719 8.22861 -0.0883875 -0.100761 8.22862 -0.0817967 -0.106181 8.22876 -0.0743778 -0.111504 8.22875 -0.0910544 -0.098358 -6.52399 12.3708 5.87084 -6.43221 18.6849 8.29239 -0.0 0.0 -0.0 -1.20594 16.6985 0.0807706 -16.0574 23.152 75.5604 0.193017 -5.46187 0.00920688 2.61837 0.0848676 -0.323635 1.00491 7.7158 9.77813 -0.0 0.0 -0.0 8.37685 4.14918 -16.3954 47.3024 -74.3889 -52.5181 0.207771 5.87655 -0.0106644 85.1297 4.44206 8.8721 -6.18213 -29.6158 22.0959 0.0 0.0 0.0 39.1894 -29.4327 -9.28271 3.57934 -0.16386 -0.524667 19.429 28.671 -2.85783 -12.7144 0.0 0.0 -0.0 0.0 -0.0 20.9518 14.2945 -1.4222 -28.9914 -0.0813747 -4.40115 29.7279 1.2733 3.89147 23.0383 -0.0 -0.0 0.0 0.0 0.0 
2371.61 662.891 -1186.66 -29.7585 44.217 25.5571 8.03074 -0.0124712 -0.0903489 8.03075 -0.00669679 -0.0909594 8.03075 -0.000173205 -0.0912054 8.03074 -0.0145752 -0.0900334 -5.72939 11.429 5.98465 -5.61676 16.6898 8.12959 -0.0 0.0 -0.0 -0.268064 15.299 1.37211 -11.4003 25.3661 74.5908 0.197578 -5.59012 0.00964609 5.89481 0.170081 -0.733438 0.739233 10.0255 8.92257 -0.0 0.0 -0.0 8.0253 1.94669 -15.6616 41.9049 -75.1279 -56.1927 0.202902 5.73976 -0.0101717 85.166 4.44641 8.87376 -6.25763 -28.8313 23.2241 0.0 0.0 0.0 38.7343 -29.8343 -8.73007 -2.90653 0.108713 0.432764 19.8918 28.2091 -2.91138 -10.6623 0.0 0.0 -0.0 0.0 -0.0 19.0351 16.996 -2.77661 -30.7725 -0.0137049 -4.6661 30.2702 -5.41332 3.91717 23.0607 -0.0 -0.0 0.0 0.0 0.0 
2341.46 664.72 -1195.23 -27.2393 43.9192 24.2479 7.48097 0.0244461 -0.149851 7.48098 0.033932 -0.147992 7.48088 0.0458225 -0.144753 7.48085 0.0223865 -0.150173 -6.827 10.369 5.76075 -6.74725 15.0911 7.82329 -0.0 0.0 -0.0 0.240544 15.8619 2.24352 -8.25458 26.8115 73.1387 0.266333 -7.51601 0.0174938 8.11021 0.214355 -1.01295 0.716707 11.3643 9.28549 -0.0 0.0 -0.0 7.6246 1.1328 -14.8443 39.3322 -75.0441 -56.0497 0.20886 5.90713 -0.0107761 85.1524 4.44478 8.87313 -6.43987 -29.3837 23.8326 0.0 0.0 0.0 38.7115 -29.5583 -7.99406 -10.7839 0.291634 1.62684 24.358 27.6445 -3.48477 -9.10883 0.0 0.0 -0.0 0.0 -0.0 17.3218 18.8562 -3.5785 -32.235 0.048011 -4.88205 30.3376 -12.4844 3.94838 23.7193 -0.0 -0.0 0.0 0.0 0.0 
2322.55 665.354 -1202.18 -25.244 43.7888 23.0958 7.13789 0.0658574 -0.198335 7.13791 0.0783444 -0.193742 7.13762 0.0949165 -0.186185 7.13758 0.0643209 -0.198839 -8.61607 9.66051 5.34143 -8.58098 14.3712 7.44993 -0.0 0.0 -0.0 0.478331 16.2347 2.6569 -5.31379 27.8581 71.5164 0.305485 -8.60538 0.022984 9.79089 0.240714 -1.22601 0.734289 12.0365 9.65178 -0.0 0.0 -0.0 7.25484 0.516213 -14.1 37.0097 -75.3054 -57.6482 0.213683 6.04255 -0.0112782 85.2413 4.45544 8.8772 -6.35289 -28.6991 23.915 0.0 0.0 0.0 39.1087 -29.2184 -7.4826 -16.9488 0.319485 2.57186 28.2054 27.9878 -3.97209 -7.36606 0.0 0.0 -0.0 0.0 -0.0 16.0266 18.5344 -4.69958 -32.8626 0.0761832 -4.97423 28.3142 -18.1202 3.78477 25.0181 -0.0 -0.0 0.0 0.0 0.0 
2296.79 668.352 -1208.91 -23.4036 44.1015 22.0109 6.84522 0.0729194 -0.216396 6.84524 0.0865414 -0.211317 6.8449 0.105648 -0.202442 6.84485 0.0723506 -0.216587 -8.15001 9.16745 5.44168 -8.09897 13.3004 7.38926 -0.0 0.0 -0.0 0.688739 16.3616 2.99928 -3.67609 28.6503 71.0543 0.329598 -9.27325 0.0267309 10.9905 0.2557 -1.37851 0.676889 12.9577 9.62886 -0.0 0.0 -0.0 6.94498 0.414435 -13.4824 37.3741 -74.8433 -55.4225 0.222523 6.29054 -0.0122277 85.0907 4.43738 8.8703 -6.45845 -29.0358 24.2558 0.0 0.0 0.0 39.1619 -28.9023 -6.36692 -21.7019 0.271535 3.29938 29.3047 26.9198 -4.07499 -7.09906 0.0 0.0 -0.0 0.0 -0.0 15.5341 20.3059 -5.69423 -34.0812 0.133765 -5.15232 30.8784 -21.5586 4.13089 24.59 -0.0 -0.0 0.0 0.0 0.0 
2260.16 673.797 -1217.65 -22.4293 44.8951 21.9071 6.6477 -0.0244174 -0.266048 6.64774 -0.0074387 -0.267062 6.64772 0.0181225 -0.26655 6.64762 -0.0242015 -0.266067 -8.23537 8.66831 5.13052 -8.19152 12.598 6.98113 -0.0 0.0 -0.0 0.591494 17.0934 2.91892 -1.02669 29.145 70.0365 0.372016 -10.4418 0.0339932 11.9961 0.265799 -1.50655 0.672904 13.1429 9.67258 -0.0 0.0 -0.0 6.2381 -0.808562 -12.0951 36.7658 -74.6958 -53.7958 0.225533 6.37494 -0.0125598 84.5147 4.36851 8.84351 -6.49412 -28.3218 25.1147 0.0 0.0 0.0 38.2903 -28.1959 -4.84821 -24.84 0.206881 3.77653 33.5908 26.4148 -4.55072 -5.97223 0.0 0.0 -0.0 0.0 -0.0 15.7626 21.1742 -6.8826 -35.1619 0.187997 -5.30922 31.2562 -25.0237 4.25162 25.2213 -0.0 -0.0 0.0 0.0 0.0 
2238.26 675.722 -1224.49 -21.9994 46.1586 22.032 6.48269 -0.0883313 -0.358381 6.48276 -0.0653477 -0.363275 6.48309 -0.0292688 -0.367943 6.48291 -0.0870109 -0.358704 -8.20346 8.27551 4.06016 -8.18488 12.6118 5.83883 -0.0 0.0 -0.0 0.531445 18.8112 2.99578 1.0856 29.1242 69.3009 0.452062 -12.6227 0.0499988 12.5434 0.270351 -1.57631 0.669105 12.6535 9.46518 -0.0 0.0 -0.0 5.06328 -0.781491 -9.80808 30.0963 -74.1016 -58.4541 0.232975 6.58348 -0.0133996 83.2604 4.21946 8.78277 -6.44236 -27.7605 25.297 0.0 0.0 0.0 37.7088 -27.6014 -3.75446 -27.6215 0.127794 4.19604 34.6233 26.161 -4.65568 -6.33966 0.0 0.0 -0.0 0.0 -0.0 16.3192 20.5896 -7.46245 -36.9039 0.281634 -5.55995 28.8872 -27.4067 4.0384 25.8195 -0.0 -0.0 0.0 0.0 0.0 
2215.09 676.709 -1231.76 -21.4287 47.8827 22.0074 6.44348 -0.199218 -0.438369 6.44357 -0.17092 -0.450157 6.44479 -0.125468 -0.464879 6.44454 -0.197312 -0.43923 -8.13085 7.7462 3.40311 -8.12187 12.0748 5.06781 -0.0 0.0 -0.0 0.62182 18.0575 3.05908 3.62567 28.8168 68.7958 0.474453 -13.2264 0.0550072 12.9428 0.273252 -1.62724 0.695764 13.0877 9.79792 -0.0 0.0 -0.0 4.86164 -1.35127 -9.43599 34.6549 -74.8322 -52.1515 0.235672 6.65901 -0.0137105 83.5543 4.25427 8.79729 -6.35827 -27.1124 25.3465 0.0 0.0 0.0 37.0872 -27.0668 -2.5808 -29.8092 0.0513258 4.52307 37.3461 25.7757 -4.9298 -4.94681 0.0 0.0 -0.0 0.0 -0.0 19.2738 20.5687 -9.17605 -37.9046 0.338871 -5.7027 31.5248 -28.184 4.37123 26.348 -0.0 -0.0 0.0 0.0 0.0 
2189.95 676.26 -1242.39 -22.1205 49.1979 22.8548 6.48776 -0.284755 -0.479538 6.48785 -0.253664 -0.496686 6.48991 -0.203607 -0.519217 6.48965 -0.283052 -0.480546 -8.09842 8.1116 2.45267 -8.10721 13.4249 4.20915 -0.0 0.0 -0.0 0.9197 16.0431 3.33229 6.28015 29.3252 69.2752 0.491809 -13.6923 0.059047 14.101 0.279656 -1.77504 0.750094 13.327 10.2338 -0.0 0.0 -0.0 3.90725 -3.27813 -7.69268 33.1769 -74.6047 -51.1105 0.231532 6.54305 -0.0132346 82.1772 4.09183 8.7277 -6.26238 -27.1037 24.7549 0.0 0.0 0.0 36.6212 -26.6691 -1.74855 -31.3476 -0.00990345 4.7512 36.3105 25.8707 -4.82585 -5.9135 0.0 0.0 -0.0 0.0 -0.0 19.695 21.5207 -10.024 -41.0099 0.532261 -6.13906 35.1037 -26.6251 4.72171 27.8477 -0.0 -0.0 0.0 0.0 0.0 
